<?xml version="1.0" standalone="no"?>
<!DOCTYPE svg PUBLIC "-//W3C//DTD SVG 20010904//EN"
 "http://www.w3.org/TR/2001/REC-SVG-20010904/DTD/svg10.dtd">
<svg version="1.0" xmlns="http://www.w3.org/2000/svg"
 width="338.000000pt" height="223.000000pt" viewBox="0 0 338.000000 223.000000"
 preserveAspectRatio="xMidYMid meet">

<g transform="translate(0.000000,223.000000) scale(0.100000,-0.100000)"
fill="#000000" stroke="none">
<path d="M1310 2205 c0 -8 5 -15 10 -15 6 0 10 -58 10 -155 l0 -155 -53 0
c-45 0 -57 -4 -75 -25 -18 -21 -22 -37 -22 -100 0 -85 18 -115 69 -115 l29 0
7 -83 c10 -117 7 -129 -35 -140 -73 -18 -100 -66 -115 -209 l-6 -58 140 0 141
0 0 214 c0 182 2 217 16 230 13 14 51 16 257 16 133 0 248 -4 255 -9 10 -6 13
-60 15 -227 l2 -219 140 -3 141 -3 -7 76 c-13 129 -38 174 -109 192 -30 8 -35
14 -38 44 -2 19 -1 67 3 107 7 70 7 72 34 72 16 0 37 10 49 23 18 20 22 35 22
96 0 66 -3 76 -26 97 -19 19 -36 24 -75 24 l-49 0 0 154 c0 93 4 157 10 161
15 9 12 25 -5 25 -27 0 -35 -39 -37 -192 -1 -104 -3 -124 -5 -63 -6 134 18
125 -318 125 -336 0 -312 9 -318 -125 -2 -61 -4 -41 -5 63 -1 84 -7 162 -12
173 -13 23 -40 26 -40 4z m20 -366 c0 -5 -7 -9 -15 -9 -12 0 -15 -16 -15 -85
l0 -85 -37 0 c-29 0 -34 3 -25 12 15 15 16 154 2 163 -21 13 -1 20 44 17 25
-2 46 -8 46 -13z m803 4 c-9 -3 -13 -29 -13 -82 0 -48 5 -82 13 -90 10 -10 4
-12 -28 -9 l-40 3 -3 83 c-2 45 -7 82 -12 82 -20 0 -9 19 13 22 28 4 86 -4 70
-9z m-766 -135 c-2 -29 -3 -8 -3 47 0 55 1 79 3 53 2 -26 2 -71 0 -100z m298
67 l0 -70 -132 -3 -133 -3 0 69 c0 38 3 72 7 76 4 3 63 5 132 4 l126 -3 0 -70z
m300 32 c4 -24 5 -56 3 -73 l-3 -29 -130 0 -130 0 -3 59 c-2 32 -1 65 2 72 4
11 34 14 130 14 l125 0 6 -43z m42 -99 c-2 -29 -3 -8 -3 47 0 55 1 79 3 53 2
-26 2 -71 0 -100z m-744 -417 c6 -26 0 -31 -40 -31 -29 0 -33 3 -33 25 0 22 4
25 34 25 25 0 35 -5 39 -19z m97 -6 c0 -22 -4 -25 -40 -25 -36 0 -40 3 -40 25
0 23 4 25 40 25 36 0 40 -2 40 -25z m728 3 c-2 -19 -10 -24 -40 -26 -35 -3
-38 -1 -38 22 0 24 4 26 41 26 36 0 40 -2 37 -22z m92 -4 c0 -23 -3 -25 -37
-22 -31 2 -39 7 -41 26 -3 20 1 22 37 22 37 0 41 -2 41 -26z"/>
<path d="M1470 1583 c-8 -3 -18 -11 -22 -17 -4 -6 -8 -102 -8 -213 l0 -203
245 0 245 0 0 204 c0 177 -2 205 -17 217 -12 11 -64 14 -222 16 -113 1 -213
-1 -221 -4z m420 -83 c0 -6 -75 -10 -205 -10 -130 0 -205 4 -205 10 0 6 75 10
205 10 130 0 205 -4 205 -10z m0 -60 c0 -6 -75 -10 -205 -10 -130 0 -205 4
-205 10 0 6 75 10 205 10 130 0 205 -4 205 -10z m0 -60 c0 -6 -75 -10 -205
-10 -130 0 -205 4 -205 10 0 6 75 10 205 10 130 0 205 -4 205 -10z m0 -60 c0
-6 -75 -10 -205 -10 -130 0 -205 4 -205 10 0 6 75 10 205 10 130 0 205 -4 205
-10z m0 -60 c0 -6 -75 -10 -205 -10 -130 0 -205 4 -205 10 0 6 75 10 205 10
130 0 205 -4 205 -10z m0 -60 c0 -6 -75 -10 -205 -10 -130 0 -205 4 -205 10 0
6 75 10 205 10 130 0 205 -4 205 -10z"/>
<path d="M1133 1123 c-9 -3 -13 -25 -13 -64 0 -51 3 -61 24 -74 13 -9 26 -26
29 -38 2 -12 8 -30 12 -39 7 -17 -21 -18 -504 -18 -505 0 -511 0 -511 -20 0
-20 5 -20 1518 -18 1341 3 1517 5 1517 18 0 13 -65 15 -514 18 -463 2 -512 4
-507 18 3 9 9 26 12 39 3 13 17 31 30 40 20 13 24 23 24 70 0 42 -4 56 -18 64
-18 9 -1073 13 -1099 4z m627 -48 c0 -12 -15 -15 -75 -15 -69 0 -86 6 -68 23
3 4 37 7 75 7 54 0 68 -3 68 -15z m-350 -95 c0 -17 -7 -20 -40 -20 -33 0 -40
3 -40 20 0 17 7 20 40 20 33 0 40 -3 40 -20z m620 0 c0 -16 -7 -20 -35 -20
-28 0 -35 4 -35 20 0 16 7 20 35 20 28 0 35 -4 35 -20z m20 -54 c0 -2 3 -11 6
-20 6 -14 -32 -16 -375 -16 -379 0 -382 0 -371 20 10 19 21 20 375 20 201 0
365 -2 365 -4z"/>
<path d="M1020 115 l0 -115 675 0 675 0 0 115 0 115 -675 0 -675 0 0 -115z"/>
<path d="M2652 210 c0 -14 2 -19 5 -12 2 6 2 18 0 25 -3 6 -5 1 -5 -13z"/>
<path d="M170 135 c0 -13 31 -15 220 -15 189 0 220 2 220 15 0 13 -31 15 -220
15 -189 0 -220 -2 -220 -15z"/>
<path d="M2760 135 c0 -13 32 -15 225 -15 193 0 225 2 225 15 0 13 -32 15
-225 15 -193 0 -225 -2 -225 -15z"/>
</g>
</svg>
